<?xml version="1.0" encoding="utf-8"?>
<!-- Generator: Adobe Illustrator 16.0.4, SVG Export Plug-In . SVG Version: 6.00 Build 0)  -->
<!DOCTYPE svg PUBLIC "-//W3C//DTD SVG 1.1//EN" "http://www.w3.org/Graphics/SVG/1.1/DTD/svg11.dtd">
<svg version="1.1" id="Calque_1" xmlns="http://www.w3.org/2000/svg" xmlns:xlink="http://www.w3.org/1999/xlink" x="0px" y="0px"
	 width="74.083px" height="64.279px" viewBox="0 0 74.083 64.279" enable-background="new 0 0 74.083 64.279" xml:space="preserve">
<path fill="#2F2B28" d="M73.154,28.069c0,0-8.953,1.004-9.174-0.49C61.766,12.541,48.809,1,33.156,1C15.949,1,2,14.949,2,32.158
	c0,17.208,13.949,31.157,31.156,31.157c16.125,0,29.391-12.25,30.996-27.952C64.26,34.31,73.154,28.069,73.154,28.069"/>
<rect fill="none" width="639.5" height="797"/>
<path fill="#F4EAAD" d="M5.395,46.429c0,0,1.758,0.049,6.574-0.663l6.574,9.694c0,0-0.49,1.657-0.984,3.669
	C17.559,59.129,10.021,55.252,5.395,46.429"/>
<path fill="#FAC8A1" d="M14.869,48.293c0,0,5.799-9.035,5.799-9.433V15.883c0,0,1.328-12.086,10.891-12.086h6.109
	c0,0,8.102,1.063,10.625,10.625v13.547c0,0,6.643,3.984,5.047,11.554c0,0-1.461,2.524-3.852,1.461v3.32c0,0-0.199,1.596-1.793,1.463
	l-0.066,2.389c0,0,4.518,0.797,3.721,4.117c-0.799,3.32-5.979,2.702-6.111,1.418c0,0,0.309-0.489-0.973-0.4
	c-1.285,0.089-26.033-0.044-26.033-0.044L14.869,48.293z"/>
<path fill="#E7B996" d="M20.734,36.153l-3.279-0.31c0,0,0.291,2.482,0.158,3.082c-0.094,0.425-2.061,4.817-5.029,7.748l4.539,6.695
	h1.42c0,0-3.32-4.681-3.387-5.08c-0.066-0.398,5.381-6.607,5.711-8.699C20.957,39.033,20.734,36.153,20.734,36.153"/>
<path fill="#E7B996" d="M20.797,20.471h-3.342c0,0-1.17-16.335,12.975-16.6C30.43,3.871,19.734,5.684,20.797,20.471"/>
<path fill="#E7B996" d="M51.006,50.077c0,0,3.264,3.923-1.604,6.004c0,0-3.363,0.927-4.072-0.687L18.543,55.46l-1.561-2.301h28.609
	c0,0,1.229,2.343,3.85,0.841C52.064,52.498,51.006,50.077,51.006,50.077"/>
<path fill="#C1C4C9" d="M27.465,30.16c0,0-4.373-1.129-5.701,1.893c0,0-1.162,2.589,0.211,4.349h-6.553c0,0-2.035-0.25-2.035-3.003
	V22.943c0,0-0.445-2.213,2.035-2.744h9.031c0,0,3.014,0.166,3.012,2.834V30.16z"/>
<path fill="#ECEFF1" d="M29.391,31.001c0,0-4.373-1.97-5.701,1.051c0,0-1.162,2.59,0.211,4.349h-6.553c0,0-2.035-0.249-2.035-3.003
	V22.942c0,0-0.445-2.212,2.035-2.743h9.031c0,0,3.154-0.399,3.012,2.833V31.001z"/>
<path fill="#C97055" d="M47.811,12.871c0,0-8.328-0.176-10.807,2.746l0.598,0.598c0,0,3.164-2.762,10.49-2.497L47.811,12.871z"/>
<path fill="#C97055" d="M48.295,16.503c0,0-8.812-0.321-11.291,2.6l0.598,0.598c0,0,3.367-2.623,10.693-2.357V16.503z"/>
<path fill="#E9F5F9" d="M38.773,27.354c0,0-1.457-3.767,2.945-3.325c4.404,0.442,5.498,0.317,7,0.859
	c0.715,0.257,2.131,3.18-0.59,2.616c-3.93-0.815-6.41,0.564-6.41,0.564L38.773,27.354z"/>
<rect x="29.391" y="26.641" fill="#592D2E" width="12.33" height="1.428"/>
<path fill="none" stroke="#592D2E" stroke-width="0.6" stroke-miterlimit="10" d="M41.879,24.559h7.486c0,0,0.555,0.754,0.527,1.755
	l0.027,2.281c0,0-0.582,3.899-3.479,4.211c-2.164,0.234-2.107,0-2.107,0s-2.586-0.875-3.041-4.006
	c-0.082-0.565-0.17-1.295-0.17-1.295S41.059,25.788,41.879,24.559z"/>
<path fill="#51251A" d="M42.551,28.292c0-0.517,0.975-0.937,2.174-0.937c1.201,0,2.174,0.42,2.174,0.937
	c0,0.518-0.973,0.938-2.174,0.938C43.525,29.23,42.551,28.81,42.551,28.292"/>
<path fill="#C97055" d="M46.168,41.117c0,0,0.865-0.465,0-0.797c-0.861-0.332-8.311,1.217-8.998,6.84v5.999h1.029l0.068-6.066
	C38.268,47.093,39.307,42.356,46.168,41.117"/>
<path fill="#C86A4F" d="M47.695,45.384l-0.025,1.342c0,0-3.836,0.062-5.021-0.197c-0.605-0.132-1.652-1.129-1.857-1.461
	c-0.332-0.531,0.133-1.494,0.928-0.763c0.797,0.73,0.865,1.162,1.926,1.079H47.695z"/>
</svg>
